<svg xmlns="http://www.w3.org/2000/svg" width="375" viewBox="0 0 375 187.5" height="187.5" version="1.0"><defs><clipPath id="a"><path d="M 50.027344 83 L 119.257812 83 L 119.257812 123.058594 L 50.027344 123.058594 Z M 50.027344 83"/></clipPath><clipPath id="b"><path d="M 50.011719 97 L 119 97 L 119 110 L 50.011719 110 Z M 50.011719 97"/></clipPath></defs><path fill="#F2D4BC" d="M 311.246094 38.910156 L 193.878906 13.042969 C 185.042969 11.089844 170.539062 11.089844 161.703125 13.042969 L 44.332031 38.910156 C 35.496094 40.863281 28.246094 49.894531 28.246094 58.984375 L 28.246094 122.554688 C 28.246094 131.828125 35.496094 141.039062 44.332031 143.054688 L 161.703125 169.535156 C 170.539062 171.546875 185.042969 171.546875 193.878906 169.535156 L 311.246094 143.054688 C 320.082031 141.039062 327.335938 131.828125 327.335938 122.554688 L 327.335938 58.984375 C 327.335938 49.894531 320.082031 40.863281 311.246094 38.910156"/><path fill="#111B1E" d="M 306.378906 43.265625 L 193.183594 18.292969 C 184.660156 16.410156 170.671875 16.410156 162.148438 18.292969 L 48.949219 43.265625 C 40.429688 45.148438 33.433594 53.867188 33.433594 62.640625 L 33.433594 118.910156 C 33.433594 127.863281 40.429688 136.753906 48.949219 138.699219 L 162.148438 164.257812 C 170.671875 166.203125 184.660156 166.203125 193.183594 164.257812 L 306.378906 138.699219 C 314.902344 136.753906 321.898438 127.863281 321.898438 118.910156 L 321.898438 62.640625 C 321.898438 53.867188 314.902344 45.148438 306.378906 43.265625"/><path fill="#D4A886" d="M 87.488281 69.199219 C 87.488281 65.84375 87.488281 62.484375 87.488281 59.128906 C 87.488281 57.054688 85.222656 56.734375 83.621094 57.03125 C 82.378906 57.265625 81.84375 58.222656 81.84375 59.410156 C 81.84375 61.492188 81.84375 63.574219 81.84375 65.652344 C 81.84375 66.835938 81.84375 68.019531 81.84375 69.199219 C 81.84375 69.820312 82.359375 70.335938 82.976562 70.335938 C 84.101562 70.335938 85.230469 70.335938 86.359375 70.335938 C 87.816406 70.335938 87.816406 68.0625 86.359375 68.0625 C 85.230469 68.0625 84.101562 68.0625 82.976562 68.0625 C 83.351562 68.441406 83.730469 68.820312 84.109375 69.199219 C 84.109375 65.84375 84.109375 62.484375 84.109375 59.128906 C 84.109375 59.035156 84.011719 59.257812 83.910156 59.296875 C 84.042969 59.246094 84.136719 59.242188 84.277344 59.230469 C 84.597656 59.207031 84.957031 59.195312 85.273438 59.253906 C 85.578125 59.3125 85.289062 59.253906 85.222656 59.074219 C 85.226562 59.089844 85.226562 59.121094 85.226562 59.140625 C 85.226562 59.210938 85.226562 59.285156 85.226562 59.355469 C 85.226562 60.179688 85.226562 61.003906 85.226562 61.828125 C 85.226562 64.054688 85.226562 66.28125 85.226562 68.507812 C 85.226562 68.738281 85.226562 68.96875 85.226562 69.199219 C 85.226562 70.664062 87.488281 70.664062 87.488281 69.199219"/><path fill="#D4A886" d="M 83.835938 49.371094 C 82.960938 50.359375 82.214844 51.5 81.761719 52.75 C 81.445312 53.628906 81.453125 54.566406 81.859375 55.410156 C 82.328125 56.378906 83.796875 57.074219 84.832031 56.933594 C 85.890625 56.792969 86.949219 56.398438 87.496094 55.410156 C 87.9375 54.609375 87.847656 53.628906 87.5625 52.792969 C 87.128906 51.53125 86.316406 50.359375 85.4375 49.371094 C 84.464844 48.277344 82.871094 49.886719 83.835938 50.976562 C 84.316406 51.519531 84.683594 52.027344 85.128906 52.855469 C 85.28125 53.136719 85.335938 53.273438 85.417969 53.515625 C 85.550781 53.898438 85.546875 53.894531 85.539062 54.234375 C 85.546875 54 85.519531 54.296875 85.503906 54.34375 C 85.53125 54.25 85.53125 54.308594 85.46875 54.378906 C 85.347656 54.511719 85.019531 54.605469 84.710938 54.671875 C 84.585938 54.699219 84.1875 54.5625 83.972656 54.4375 C 83.792969 54.335938 83.84375 54.347656 83.808594 54.234375 C 83.789062 54.171875 83.789062 53.9375 83.8125 53.832031 C 83.867188 53.535156 83.996094 53.210938 84.078125 53.03125 C 84.335938 52.480469 84.675781 51.964844 85.035156 51.476562 C 85.058594 51.441406 85.261719 51.179688 85.085938 51.40625 C 85.144531 51.328125 85.207031 51.25 85.269531 51.175781 C 85.324219 51.109375 85.378906 51.042969 85.4375 50.976562 C 86.402344 49.886719 84.808594 48.273438 83.835938 49.371094"/><path fill="#D4A886" d="M 98.609375 69.199219 C 98.609375 65.84375 98.609375 62.484375 98.609375 59.128906 C 98.609375 57.054688 96.347656 56.734375 94.742188 57.03125 C 93.503906 57.265625 92.964844 58.222656 92.964844 59.410156 C 92.964844 61.492188 92.964844 63.574219 92.964844 65.652344 C 92.964844 66.835938 92.964844 68.019531 92.964844 69.199219 C 92.964844 69.820312 93.480469 70.335938 94.097656 70.335938 C 95.226562 70.335938 96.351562 70.335938 97.480469 70.335938 C 98.9375 70.335938 98.9375 68.0625 97.480469 68.0625 C 96.351562 68.0625 95.226562 68.0625 94.097656 68.0625 C 94.476562 68.441406 94.851562 68.820312 95.230469 69.199219 C 95.230469 65.84375 95.230469 62.484375 95.230469 59.128906 C 95.230469 59.035156 95.132812 59.257812 95.03125 59.296875 C 95.164062 59.246094 95.261719 59.242188 95.402344 59.230469 C 95.71875 59.207031 96.078125 59.195312 96.394531 59.253906 C 96.699219 59.3125 96.410156 59.253906 96.34375 59.074219 C 96.347656 59.089844 96.347656 59.121094 96.347656 59.140625 C 96.347656 59.210938 96.347656 59.285156 96.347656 59.355469 C 96.347656 60.179688 96.347656 61.003906 96.347656 61.828125 C 96.347656 64.054688 96.347656 66.28125 96.347656 68.507812 C 96.347656 68.738281 96.347656 68.96875 96.347656 69.199219 C 96.347656 70.664062 98.609375 70.664062 98.609375 69.199219"/><path fill="#D4A886" d="M 94.960938 49.371094 C 94.082031 50.359375 93.335938 51.5 92.886719 52.75 C 92.566406 53.628906 92.574219 54.566406 92.984375 55.410156 C 93.449219 56.378906 94.917969 57.074219 95.953125 56.933594 C 97.011719 56.792969 98.070312 56.398438 98.617188 55.410156 C 99.058594 54.609375 98.96875 53.628906 98.683594 52.792969 C 98.253906 51.53125 97.441406 50.359375 96.558594 49.371094 C 95.585938 48.277344 93.992188 49.886719 94.960938 50.976562 C 95.441406 51.519531 95.804688 52.027344 96.25 52.855469 C 96.402344 53.136719 96.460938 53.273438 96.539062 53.515625 C 96.671875 53.898438 96.671875 53.894531 96.660156 54.234375 C 96.667969 54 96.640625 54.296875 96.628906 54.34375 C 96.65625 54.25 96.65625 54.308594 96.589844 54.378906 C 96.46875 54.511719 96.140625 54.605469 95.835938 54.671875 C 95.707031 54.699219 95.308594 54.5625 95.09375 54.4375 C 94.914062 54.335938 94.96875 54.347656 94.933594 54.234375 C 94.914062 54.171875 94.914062 53.9375 94.933594 53.832031 C 94.988281 53.535156 95.117188 53.210938 95.203125 53.03125 C 95.460938 52.480469 95.800781 51.964844 96.15625 51.476562 C 96.179688 51.441406 96.382812 51.179688 96.207031 51.40625 C 96.269531 51.328125 96.328125 51.25 96.390625 51.175781 C 96.445312 51.109375 96.503906 51.042969 96.558594 50.976562 C 97.527344 49.886719 95.929688 48.273438 94.960938 49.371094"/><path fill="#D4A886" d="M 76.050781 69.199219 C 76.050781 65.84375 76.050781 62.484375 76.050781 59.128906 C 76.050781 57.054688 73.785156 56.734375 72.183594 57.03125 C 70.941406 57.265625 70.402344 58.222656 70.402344 59.410156 C 70.402344 61.492188 70.402344 63.574219 70.402344 65.652344 C 70.402344 66.835938 70.402344 68.019531 70.402344 69.199219 C 70.402344 69.820312 70.917969 70.335938 71.535156 70.335938 C 72.664062 70.335938 73.789062 70.335938 74.917969 70.335938 C 76.378906 70.335938 76.378906 68.0625 74.917969 68.0625 C 73.789062 68.0625 72.664062 68.0625 71.535156 68.0625 C 71.914062 68.441406 72.289062 68.820312 72.667969 69.199219 C 72.667969 65.84375 72.667969 62.484375 72.667969 59.128906 C 72.667969 59.035156 72.570312 59.257812 72.46875 59.296875 C 72.601562 59.246094 72.699219 59.242188 72.839844 59.230469 C 73.160156 59.207031 73.515625 59.195312 73.832031 59.253906 C 74.136719 59.3125 73.847656 59.253906 73.78125 59.074219 C 73.789062 59.089844 73.785156 59.121094 73.785156 59.140625 C 73.785156 59.210938 73.785156 59.285156 73.785156 59.355469 C 73.785156 60.179688 73.785156 61.003906 73.785156 61.828125 C 73.785156 64.054688 73.785156 66.28125 73.785156 68.507812 C 73.785156 68.738281 73.785156 68.96875 73.785156 69.199219 C 73.785156 70.664062 76.050781 70.664062 76.050781 69.199219"/><path fill="#D4A886" d="M 72.398438 49.371094 C 71.519531 50.359375 70.773438 51.5 70.324219 52.75 C 70.003906 53.628906 70.011719 54.566406 70.421875 55.410156 C 70.886719 56.378906 72.355469 57.074219 73.390625 56.933594 C 74.449219 56.792969 75.507812 56.398438 76.054688 55.410156 C 76.496094 54.609375 76.40625 53.628906 76.121094 52.792969 C 75.691406 51.53125 74.878906 50.359375 73.996094 49.371094 C 73.023438 48.277344 71.429688 49.886719 72.398438 50.976562 C 72.878906 51.519531 73.242188 52.027344 73.6875 52.855469 C 73.839844 53.136719 73.898438 53.273438 73.980469 53.515625 C 74.109375 53.898438 74.109375 53.894531 74.097656 54.234375 C 74.105469 54 74.078125 54.296875 74.066406 54.34375 C 74.09375 54.25 74.09375 54.308594 74.027344 54.378906 C 73.90625 54.511719 73.578125 54.605469 73.273438 54.671875 C 73.144531 54.699219 72.746094 54.5625 72.53125 54.4375 C 72.351562 54.335938 72.40625 54.347656 72.371094 54.234375 C 72.351562 54.171875 72.351562 53.9375 72.371094 53.832031 C 72.425781 53.535156 72.554688 53.210938 72.640625 53.03125 C 72.898438 52.480469 73.238281 51.964844 73.59375 51.476562 C 73.617188 51.441406 73.820312 51.179688 73.644531 51.40625 C 73.707031 51.328125 73.769531 51.25 73.832031 51.175781 C 73.886719 51.109375 73.941406 51.042969 73.996094 50.976562 C 74.964844 49.886719 73.371094 48.273438 72.398438 49.371094"/><g clip-path="url(#a)"><path fill="#D4A886" d="M 58.324219 83.160156 C 55.140625 84.554688 51.515625 86.617188 50.335938 90.125 C 49.921875 91.355469 50.074219 92.835938 50.074219 94.113281 C 50.074219 98.628906 50.074219 103.144531 50.074219 107.660156 C 50.074219 108.816406 49.984375 110.027344 50.230469 111.167969 C 50.703125 113.324219 52.445312 114.976562 54.15625 116.214844 C 56.558594 117.960938 59.429688 119.082031 62.234375 119.980469 C 65.9375 121.164062 69.78125 121.867188 73.632812 122.359375 C 82.410156 123.476562 91.453125 123.261719 100.15625 121.679688 C 103.648438 121.042969 107.121094 120.140625 110.40625 118.769531 C 112.847656 117.75 115.296875 116.472656 117.152344 114.539062 C 118.390625 113.246094 119.257812 111.601562 119.257812 109.777344 C 119.257812 108.363281 119.257812 106.949219 119.257812 105.535156 C 119.257812 101.210938 119.257812 96.886719 119.257812 92.566406 C 119.257812 91.167969 119.058594 89.894531 118.332031 88.660156 C 116.769531 86.003906 113.730469 84.351562 111.011719 83.160156 C 110.445312 82.910156 109.800781 82.984375 109.460938 83.566406 C 109.179688 84.054688 109.304688 84.871094 109.867188 85.121094 C 111.6875 85.917969 113.496094 86.859375 114.992188 88.191406 C 115.945312 89.042969 116.867188 90.175781 116.984375 91.503906 C 117.085938 92.65625 116.996094 93.855469 116.996094 95.011719 C 116.996094 99.480469 116.996094 103.949219 116.996094 108.421875 C 116.996094 108.878906 116.996094 109.339844 116.996094 109.796875 C 116.996094 110.355469 116.855469 110.929688 116.648438 111.371094 C 115.757812 113.246094 113.792969 114.546875 111.914062 115.566406 C 109.054688 117.113281 105.890625 118.070312 102.746094 118.820312 C 98.71875 119.78125 94.597656 120.308594 90.472656 120.574219 C 81.9375 121.125 73.152344 120.609375 64.867188 118.386719 C 61.894531 117.585938 58.941406 116.539062 56.300781 114.921875 C 55.335938 114.332031 54.472656 113.671875 53.695312 112.839844 C 53.132812 112.238281 52.667969 111.476562 52.464844 110.761719 C 52.328125 110.296875 52.339844 110.109375 52.339844 109.542969 C 52.339844 108.917969 52.339844 108.289062 52.339844 107.660156 C 52.339844 105.410156 52.339844 103.160156 52.339844 100.910156 C 52.339844 98.644531 52.339844 96.378906 52.339844 94.113281 C 52.339844 92.894531 52.191406 91.585938 52.625 90.429688 C 53.046875 89.296875 54.070312 88.382812 54.980469 87.652344 C 56.3125 86.578125 57.910156 85.800781 59.464844 85.121094 C 60.03125 84.871094 60.15625 84.054688 59.871094 83.566406 C 59.53125 82.984375 58.886719 82.910156 58.324219 83.160156"/></g><path fill="#D4A886" d="M 82.089844 60.140625 C 80.789062 60.210938 79.492188 60.347656 78.195312 60.492188 C 77.585938 60.558594 77.066406 60.957031 77.066406 61.628906 C 77.066406 62.195312 77.582031 62.832031 78.195312 62.761719 C 79.492188 62.621094 80.789062 62.484375 82.089844 62.410156 C 83.539062 62.332031 83.546875 60.058594 82.089844 60.140625"/><path fill="#D4A886" d="M 90.65625 60.4375 C 89.226562 60.292969 87.796875 60.152344 86.359375 60.105469 C 84.898438 60.054688 84.902344 62.324219 86.359375 62.375 C 87.796875 62.425781 89.226562 62.5625 90.65625 62.710938 C 91.269531 62.777344 91.789062 62.148438 91.789062 61.574219 C 91.789062 60.910156 91.269531 60.503906 90.65625 60.4375"/><path fill="#D4A886" d="M 67.902344 62.265625 C 64.566406 63.28125 60.695312 64.738281 58.664062 67.78125 C 57.726562 69.179688 57.839844 70.753906 57.839844 72.347656 C 57.839844 76.3125 57.839844 80.273438 57.839844 84.238281 C 57.839844 86.222656 59.070312 87.851562 60.570312 89.023438 C 63.007812 90.929688 66.023438 92.007812 68.976562 92.8125 C 77.296875 95.078125 86.359375 95.199219 94.847656 93.945312 C 98.441406 93.414062 102.007812 92.539062 105.335938 91.054688 C 107.488281 90.09375 109.863281 88.675781 110.957031 86.484375 C 111.601562 85.195312 111.496094 83.820312 111.496094 82.425781 C 111.496094 80.101562 111.496094 77.777344 111.496094 75.453125 C 111.496094 74.1875 111.496094 72.921875 111.496094 71.65625 C 111.496094 70.925781 111.515625 70.214844 111.390625 69.492188 C 111.074219 67.730469 109.628906 66.375 108.261719 65.371094 C 106.238281 63.878906 103.753906 62.96875 101.371094 62.246094 C 99.96875 61.824219 99.375 64.015625 100.769531 64.4375 C 102.691406 65.019531 104.566406 65.734375 106.292969 66.78125 C 107.332031 67.410156 108.546875 68.324219 109.011719 69.441406 C 109.464844 70.527344 109.230469 72.15625 109.230469 73.402344 C 109.230469 75.796875 109.230469 78.191406 109.230469 80.589844 C 109.230469 81.921875 109.316406 83.289062 109.21875 84.621094 C 109.234375 84.398438 109.148438 84.917969 109.121094 85.019531 C 109.09375 85.121094 109.054688 85.21875 109.019531 85.316406 C 109.101562 85.09375 108.964844 85.417969 108.957031 85.4375 C 108.703125 85.941406 108.527344 86.140625 108.167969 86.523438 C 107.355469 87.386719 106.339844 88.007812 105.292969 88.558594 C 102.265625 90.164062 98.808594 90.972656 95.460938 91.558594 C 91.078125 92.324219 86.585938 92.523438 82.144531 92.378906 C 77.984375 92.242188 73.824219 91.730469 69.792969 90.679688 C 67.046875 89.964844 64.054688 88.980469 61.839844 87.152344 C 61.445312 86.828125 61.085938 86.460938 60.761719 86.0625 C 60.625 85.894531 60.300781 85.28125 60.242188 85.121094 C 60.054688 84.578125 60.101562 84.46875 60.101562 83.859375 C 60.101562 79.734375 60.101562 75.609375 60.101562 71.484375 C 60.101562 70.371094 60.070312 69.582031 60.808594 68.65625 C 62.621094 66.371094 65.828125 65.273438 68.503906 64.457031 C 69.898438 64.03125 69.304688 61.839844 67.902344 62.265625"/><path fill="#D4A886" d="M 77.925781 80.066406 C 85.632812 80.800781 93.714844 80.441406 101.183594 78.273438 C 103.75 77.53125 106.390625 76.527344 108.535156 74.894531 C 110.105469 73.699219 111.464844 72.082031 111.496094 70.007812 C 111.515625 68.542969 109.253906 68.546875 109.230469 70.007812 C 109.222656 70.566406 109.046875 71.0625 108.605469 71.703125 C 108.25 72.222656 107.449219 72.914062 106.800781 73.359375 C 104.691406 74.808594 102.199219 75.652344 99.753906 76.316406 C 92.714844 78.234375 85.152344 78.484375 77.925781 77.792969 C 76.472656 77.65625 76.484375 79.929688 77.925781 80.066406"/><path fill="#D4A886" d="M 71.242188 79.050781 C 72.359375 79.289062 73.480469 79.488281 74.609375 79.65625 C 75.21875 79.75 75.824219 79.515625 76 78.863281 C 76.152344 78.324219 75.824219 77.558594 75.210938 77.464844 C 74.082031 77.296875 72.960938 77.097656 71.84375 76.863281 C 70.417969 76.5625 69.8125 78.75 71.242188 79.050781"/><path fill="#D4A886" d="M 57.839844 70.007812 C 57.929688 74.355469 63.132812 76.566406 66.558594 77.765625 C 67.9375 78.253906 68.527344 76.058594 67.160156 75.578125 C 65.34375 74.941406 63.484375 74.160156 61.964844 72.949219 C 61.039062 72.210938 60.125 71.195312 60.101562 70.007812 C 60.070312 68.546875 57.808594 68.542969 57.839844 70.007812"/><g clip-path="url(#b)"><path fill="#D4A886" d="M 50.027344 98.265625 C 50.015625 99.40625 50.363281 100.597656 50.894531 101.601562 C 52.039062 103.757812 54.382812 104.644531 56.714844 104.554688 C 58.65625 104.484375 60.492188 103.75 62.410156 103.527344 C 63.820312 103.363281 65.253906 103.386719 66.625 103.789062 C 68.070312 104.21875 68.824219 105.019531 69.992188 106.074219 C 71.703125 107.613281 73.507812 108.945312 75.84375 109.304688 C 77.625 109.582031 79.410156 109.304688 81.085938 108.652344 C 82.128906 108.242188 83.074219 107.664062 84.074219 107.171875 C 85.0625 106.683594 86.117188 106.347656 87.1875 106.109375 C 88.703125 105.773438 90.316406 105.769531 91.839844 106.0625 C 92.398438 106.167969 92.949219 106.320312 93.488281 106.503906 C 93.699219 106.574219 93.910156 106.652344 94.121094 106.734375 C 94.160156 106.75 94.464844 106.878906 94.195312 106.765625 C 94.292969 106.808594 94.386719 106.847656 94.480469 106.890625 C 95.953125 107.558594 97.359375 108.289062 98.964844 108.601562 C 100.925781 108.984375 102.871094 108.777344 104.6875 107.933594 C 105.785156 107.425781 106.753906 106.601562 107.5625 105.707031 C 108.484375 104.6875 109.199219 103.539062 110.324219 102.703125 C 111.691406 101.691406 113.484375 101.230469 115.027344 101.472656 C 115.617188 101.5625 116.199219 101.734375 116.75 101.957031 C 116.449219 101.835938 116.910156 102.03125 117 102.078125 C 117.0625 102.109375 117.125 102.140625 117.183594 102.175781 C 118.441406 102.925781 119.578125 100.960938 118.324219 100.214844 C 116.925781 99.378906 115.125 99.050781 113.519531 99.164062 C 111.953125 99.273438 110.464844 99.839844 109.183594 100.742188 C 107.496094 101.929688 106.519531 103.726562 104.988281 105.058594 C 102.921875 106.851562 100.152344 106.78125 97.722656 105.894531 C 97.296875 105.738281 97.191406 105.6875 96.726562 105.464844 C 96.488281 105.351562 96.257812 105.222656 96.019531 105.113281 C 95.351562 104.796875 94.671875 104.503906 93.96875 104.269531 C 90.792969 103.207031 87.300781 103.433594 84.207031 104.648438 C 82.191406 105.441406 80.464844 106.703125 78.296875 107.082031 C 77.003906 107.308594 75.605469 107.082031 74.421875 106.527344 C 72.964844 105.839844 71.933594 104.800781 70.742188 103.683594 C 69.117188 102.160156 67.171875 101.390625 64.964844 101.199219 C 62.574219 100.988281 60.292969 101.644531 57.980469 102.125 C 56.472656 102.4375 54.90625 102.382812 53.710938 101.523438 C 53.128906 101.109375 52.691406 100.269531 52.472656 99.484375 C 52.417969 99.292969 52.378906 99.097656 52.34375 98.902344 C 52.273438 98.519531 52.351562 99.089844 52.3125 98.679688 C 52.300781 98.542969 52.289062 98.402344 52.292969 98.265625 C 52.304688 96.796875 50.042969 96.800781 50.027344 98.265625"/></g><g fill="#D4A886"><g><g><path d="M 8.578125 -19.78125 C 9.628906 -19.78125 10.65625 -19.625 11.65625 -19.3125 C 12.65625 -19.007812 13.398438 -18.707031 13.890625 -18.40625 L 14.59375 -17.9375 L 12.8125 -14.40625 C 12.664062 -14.5 12.46875 -14.617188 12.21875 -14.765625 C 11.96875 -14.921875 11.492188 -15.125 10.796875 -15.375 C 10.109375 -15.625 9.46875 -15.75 8.875 -15.75 C 8.132812 -15.75 7.5625 -15.59375 7.15625 -15.28125 C 6.757812 -14.96875 6.5625 -14.546875 6.5625 -14.015625 C 6.5625 -13.742188 6.65625 -13.492188 6.84375 -13.265625 C 7.039062 -13.035156 7.363281 -12.789062 7.8125 -12.53125 C 8.269531 -12.28125 8.671875 -12.070312 9.015625 -11.90625 C 9.359375 -11.75 9.894531 -11.515625 10.625 -11.203125 C 11.875 -10.671875 12.941406 -9.945312 13.828125 -9.03125 C 14.722656 -8.113281 15.171875 -7.070312 15.171875 -5.90625 C 15.171875 -4.789062 14.96875 -3.816406 14.5625 -2.984375 C 14.164062 -2.160156 13.617188 -1.507812 12.921875 -1.03125 C 12.222656 -0.5625 11.445312 -0.210938 10.59375 0.015625 C 9.75 0.242188 8.832031 0.359375 7.84375 0.359375 C 6.988281 0.359375 6.15625 0.269531 5.34375 0.09375 C 4.53125 -0.0820312 3.847656 -0.296875 3.296875 -0.546875 C 2.742188 -0.804688 2.25 -1.0625 1.8125 -1.3125 C 1.375 -1.570312 1.050781 -1.785156 0.84375 -1.953125 L 0.546875 -2.21875 L 2.75 -5.9375 C 2.9375 -5.78125 3.195312 -5.578125 3.53125 -5.328125 C 3.863281 -5.085938 4.445312 -4.765625 5.28125 -4.359375 C 6.125 -3.953125 6.867188 -3.75 7.515625 -3.75 C 9.378906 -3.75 10.3125 -4.382812 10.3125 -5.65625 C 10.3125 -5.914062 10.242188 -6.160156 10.109375 -6.390625 C 9.972656 -6.617188 9.738281 -6.847656 9.40625 -7.078125 C 9.070312 -7.304688 8.773438 -7.484375 8.515625 -7.609375 C 8.253906 -7.742188 7.828125 -7.945312 7.234375 -8.21875 C 6.648438 -8.5 6.21875 -8.710938 5.9375 -8.859375 C 4.757812 -9.429688 3.847656 -10.15625 3.203125 -11.03125 C 2.554688 -11.90625 2.234375 -12.84375 2.234375 -13.84375 C 2.234375 -15.582031 2.875 -17.003906 4.15625 -18.109375 C 5.445312 -19.222656 6.921875 -19.78125 8.578125 -19.78125 Z M 8.578125 -19.78125" transform="translate(152.361 89.483)"/></g></g></g><g fill="#D4A886"><g><g><path d="M 1.40625 -19.421875 L 8.5 -19.421875 C 10.476562 -19.421875 12.078125 -18.910156 13.296875 -17.890625 C 14.523438 -16.867188 15.140625 -15.382812 15.140625 -13.4375 C 15.140625 -11.5 14.519531 -9.972656 13.28125 -8.859375 C 12.039062 -7.753906 10.445312 -7.203125 8.5 -7.203125 L 5.84375 -7.203125 L 5.84375 0 L 1.40625 0 Z M 5.84375 -10.734375 L 7.09375 -10.734375 C 8.082031 -10.734375 8.894531 -10.929688 9.53125 -11.328125 C 10.164062 -11.734375 10.484375 -12.390625 10.484375 -13.296875 C 10.484375 -14.222656 10.164062 -14.882812 9.53125 -15.28125 C 8.894531 -15.6875 8.082031 -15.890625 7.09375 -15.890625 L 5.84375 -15.890625 Z M 5.84375 -10.734375" transform="translate(168.182 89.483)"/></g></g></g><g fill="#D4A886"><g><g><path d="M 11.28125 -19.421875 L 19.125 0 L 14.359375 0 L 12.921875 -3.890625 L 5.53125 -3.890625 L 4.09375 0 L -0.65625 0 L 7.1875 -19.421875 Z M 11.421875 -7.765625 L 9.25 -13.421875 L 9.203125 -13.421875 L 7.046875 -7.765625 Z M 11.421875 -7.765625" transform="translate(183.86 89.483)"/></g></g></g><g fill="#D4A886"><g><g><path d="M 11.75 -4 C 12.425781 -4 13.082031 -4.097656 13.71875 -4.296875 C 14.351562 -4.503906 14.816406 -4.703125 15.109375 -4.890625 L 15.5625 -5.203125 L 17.453125 -1.4375 C 17.390625 -1.382812 17.300781 -1.316406 17.1875 -1.234375 C 17.082031 -1.160156 16.828125 -1.019531 16.421875 -0.8125 C 16.023438 -0.601562 15.597656 -0.421875 15.140625 -0.265625 C 14.679688 -0.109375 14.082031 0.03125 13.34375 0.15625 C 12.613281 0.289062 11.851562 0.359375 11.0625 0.359375 C 9.257812 0.359375 7.550781 -0.0820312 5.9375 -0.96875 C 4.320312 -1.863281 3.019531 -3.085938 2.03125 -4.640625 C 1.039062 -6.191406 0.546875 -7.867188 0.546875 -9.671875 C 0.546875 -11.035156 0.832031 -12.347656 1.40625 -13.609375 C 1.988281 -14.867188 2.765625 -15.941406 3.734375 -16.828125 C 4.703125 -17.722656 5.828125 -18.4375 7.109375 -18.96875 C 8.398438 -19.507812 9.71875 -19.78125 11.0625 -19.78125 C 12.320312 -19.78125 13.476562 -19.628906 14.53125 -19.328125 C 15.59375 -19.035156 16.34375 -18.738281 16.78125 -18.4375 L 17.453125 -17.984375 L 15.5625 -14.21875 C 15.457031 -14.3125 15.289062 -14.425781 15.0625 -14.5625 C 14.84375 -14.695312 14.40625 -14.875 13.75 -15.09375 C 13.09375 -15.3125 12.425781 -15.421875 11.75 -15.421875 C 10.6875 -15.421875 9.726562 -15.25 8.875 -14.90625 C 8.03125 -14.5625 7.359375 -14.101562 6.859375 -13.53125 C 6.367188 -12.96875 5.992188 -12.359375 5.734375 -11.703125 C 5.472656 -11.054688 5.34375 -10.394531 5.34375 -9.71875 C 5.34375 -8.25 5.894531 -6.925781 7 -5.75 C 8.113281 -4.582031 9.695312 -4 11.75 -4 Z M 11.75 -4" transform="translate(202.318 89.483)"/></g></g></g><g fill="#D4A886"><g><g><path d="M 12.53125 -19.421875 L 12.53125 -15.546875 L 5.84375 -15.546875 L 5.84375 -11.671875 L 12.25 -11.671875 L 12.25 -7.796875 L 5.84375 -7.796875 L 5.84375 -3.890625 L 12.53125 -3.890625 L 12.53125 0 L 1.40625 0 L 1.40625 -19.421875 Z M 12.53125 -19.421875" transform="translate(220.045 89.483)"/></g></g></g><g fill="#D4A886"><g><g><path d="M 4.828125 -13.828125 L 1.34375 -15.515625 C 1.375 -15.628906 1.421875 -15.78125 1.484375 -15.96875 C 1.546875 -16.164062 1.734375 -16.507812 2.046875 -17 C 2.359375 -17.488281 2.726562 -17.921875 3.15625 -18.296875 C 3.582031 -18.671875 4.203125 -19.007812 5.015625 -19.3125 C 5.828125 -19.625 6.742188 -19.78125 7.765625 -19.78125 C 9.617188 -19.78125 11.144531 -19.25 12.34375 -18.1875 C 13.550781 -17.125 14.15625 -15.769531 14.15625 -14.125 C 14.15625 -12.59375 13.582031 -11.378906 12.4375 -10.484375 C 14.082031 -9.472656 14.90625 -7.988281 14.90625 -6.03125 C 14.90625 -4.175781 14.222656 -2.644531 12.859375 -1.4375 C 11.503906 -0.238281 9.785156 0.359375 7.703125 0.359375 C 6.585938 0.359375 5.570312 0.191406 4.65625 -0.140625 C 3.75 -0.472656 3.039062 -0.867188 2.53125 -1.328125 C 2.019531 -1.796875 1.59375 -2.265625 1.25 -2.734375 C 0.914062 -3.203125 0.6875 -3.601562 0.5625 -3.9375 L 0.40625 -4.421875 L 4.5 -6.421875 C 4.5 -6.347656 4.507812 -6.242188 4.53125 -6.109375 C 4.550781 -5.972656 4.628906 -5.734375 4.765625 -5.390625 C 4.910156 -5.046875 5.085938 -4.742188 5.296875 -4.484375 C 5.503906 -4.222656 5.816406 -3.988281 6.234375 -3.78125 C 6.648438 -3.570312 7.128906 -3.46875 7.671875 -3.46875 C 8.503906 -3.46875 9.179688 -3.691406 9.703125 -4.140625 C 10.222656 -4.597656 10.484375 -5.226562 10.484375 -6.03125 C 10.484375 -6.863281 10.210938 -7.546875 9.671875 -8.078125 C 9.128906 -8.609375 8.460938 -8.875 7.671875 -8.875 L 6.828125 -8.734375 L 6.828125 -11.625 L 7.796875 -11.625 C 8.410156 -11.625 8.953125 -11.859375 9.421875 -12.328125 C 9.890625 -12.804688 10.125 -13.390625 10.125 -14.078125 C 10.125 -14.691406 9.882812 -15.203125 9.40625 -15.609375 C 8.925781 -16.015625 8.363281 -16.21875 7.71875 -16.21875 C 7.269531 -16.21875 6.859375 -16.132812 6.484375 -15.96875 C 6.117188 -15.8125 5.835938 -15.613281 5.640625 -15.375 C 5.441406 -15.132812 5.273438 -14.894531 5.140625 -14.65625 C 5.003906 -14.425781 4.921875 -14.234375 4.890625 -14.078125 Z M 4.828125 -13.828125" transform="translate(240.127 89.483)"/></g></g></g><g fill="#D4A886"><g><g><path d="M 13.65625 -19.421875 L 7.9375 -12.765625 C 8.269531 -12.953125 8.734375 -13.046875 9.328125 -13.046875 C 10.015625 -13.046875 10.710938 -12.898438 11.421875 -12.609375 C 12.128906 -12.316406 12.789062 -11.898438 13.40625 -11.359375 C 14.03125 -10.816406 14.535156 -10.097656 14.921875 -9.203125 C 15.316406 -8.304688 15.515625 -7.316406 15.515625 -6.234375 C 15.515625 -5.140625 15.304688 -4.15625 14.890625 -3.28125 C 14.472656 -2.414062 13.914062 -1.726562 13.21875 -1.21875 C 12.519531 -0.707031 11.753906 -0.316406 10.921875 -0.046875 C 10.085938 0.222656 9.21875 0.359375 8.3125 0.359375 C 6.125 0.359375 4.285156 -0.273438 2.796875 -1.546875 C 1.304688 -2.828125 0.5625 -4.390625 0.5625 -6.234375 C 0.5625 -7.804688 0.78125 -9.097656 1.21875 -10.109375 C 1.664062 -11.117188 2.46875 -12.410156 3.625 -13.984375 L 8.1875 -19.421875 Z M 5.15625 -6.234375 C 5.15625 -5.390625 5.429688 -4.6875 5.984375 -4.125 C 6.535156 -3.570312 7.238281 -3.296875 8.09375 -3.296875 C 8.957031 -3.296875 9.671875 -3.570312 10.234375 -4.125 C 10.804688 -4.6875 11.09375 -5.390625 11.09375 -6.234375 C 11.09375 -7.097656 10.804688 -7.816406 10.234375 -8.390625 C 9.660156 -8.960938 8.945312 -9.25 8.09375 -9.25 C 7.28125 -9.25 6.585938 -8.960938 6.015625 -8.390625 C 5.441406 -7.816406 5.15625 -7.097656 5.15625 -6.234375 Z M 5.15625 -6.234375" transform="translate(255.782 89.483)"/></g></g></g><g fill="#FFF"><g><g><path d="M 0.578125 -7.9375 L 3.46875 -7.9375 C 4.28125 -7.9375 4.9375 -7.726562 5.4375 -7.3125 C 5.9375 -6.894531 6.1875 -6.285156 6.1875 -5.484375 C 6.1875 -4.691406 5.929688 -4.066406 5.421875 -3.609375 C 4.921875 -3.160156 4.269531 -2.9375 3.46875 -2.9375 L 2.390625 -2.9375 L 2.390625 0 L 0.578125 0 Z M 2.390625 -4.390625 L 2.890625 -4.390625 C 3.296875 -4.390625 3.628906 -4.46875 3.890625 -4.625 C 4.148438 -4.789062 4.28125 -5.0625 4.28125 -5.4375 C 4.28125 -5.8125 4.148438 -6.082031 3.890625 -6.25 C 3.628906 -6.414062 3.296875 -6.5 2.890625 -6.5 L 2.390625 -6.5 Z M 2.390625 -4.390625" transform="translate(147.472 105.942)"/></g></g></g><g fill="#FFF"><g><g><path d="M 4.609375 -7.9375 L 7.8125 0 L 5.875 0 L 5.28125 -1.59375 L 2.265625 -1.59375 L 1.671875 0 L -0.265625 0 L 2.9375 -7.9375 Z M 4.671875 -3.171875 L 3.78125 -5.484375 L 3.765625 -5.484375 L 2.875 -3.171875 Z M 4.671875 -3.171875" transform="translate(161.578 105.942)"/></g></g></g><g fill="#FFF"><g><g><path d="M 3.5 -8.078125 C 3.925781 -8.078125 4.34375 -8.015625 4.75 -7.890625 C 5.164062 -7.765625 5.472656 -7.644531 5.671875 -7.53125 L 5.96875 -7.328125 L 5.234375 -5.890625 C 5.179688 -5.929688 5.101562 -5.976562 5 -6.03125 C 4.894531 -6.09375 4.703125 -6.175781 4.421875 -6.28125 C 4.140625 -6.382812 3.875 -6.4375 3.625 -6.4375 C 3.320312 -6.4375 3.085938 -6.367188 2.921875 -6.234375 C 2.765625 -6.109375 2.6875 -5.941406 2.6875 -5.734375 C 2.6875 -5.617188 2.722656 -5.515625 2.796875 -5.421875 C 2.878906 -5.328125 3.007812 -5.226562 3.1875 -5.125 C 3.375 -5.019531 3.535156 -4.9375 3.671875 -4.875 C 3.816406 -4.8125 4.039062 -4.710938 4.34375 -4.578125 C 4.851562 -4.359375 5.289062 -4.0625 5.65625 -3.6875 C 6.019531 -3.3125 6.203125 -2.890625 6.203125 -2.421875 C 6.203125 -1.960938 6.117188 -1.5625 5.953125 -1.21875 C 5.785156 -0.882812 5.554688 -0.617188 5.265625 -0.421875 C 4.984375 -0.234375 4.671875 -0.09375 4.328125 0 C 3.984375 0.09375 3.609375 0.140625 3.203125 0.140625 C 2.859375 0.140625 2.519531 0.101562 2.1875 0.03125 C 1.851562 -0.03125 1.570312 -0.113281 1.34375 -0.21875 C 1.125 -0.332031 0.921875 -0.4375 0.734375 -0.53125 C 0.554688 -0.632812 0.425781 -0.722656 0.34375 -0.796875 L 0.21875 -0.90625 L 1.125 -2.421875 C 1.195312 -2.359375 1.300781 -2.273438 1.4375 -2.171875 C 1.570312 -2.078125 1.8125 -1.945312 2.15625 -1.78125 C 2.5 -1.613281 2.804688 -1.53125 3.078125 -1.53125 C 3.835938 -1.53125 4.21875 -1.789062 4.21875 -2.3125 C 4.21875 -2.414062 4.1875 -2.515625 4.125 -2.609375 C 4.070312 -2.703125 3.976562 -2.796875 3.84375 -2.890625 C 3.707031 -2.984375 3.585938 -3.054688 3.484375 -3.109375 C 3.378906 -3.171875 3.203125 -3.253906 2.953125 -3.359375 C 2.710938 -3.472656 2.535156 -3.5625 2.421875 -3.625 C 1.941406 -3.851562 1.570312 -4.144531 1.3125 -4.5 C 1.050781 -4.863281 0.921875 -5.25 0.921875 -5.65625 C 0.921875 -6.375 1.179688 -6.957031 1.703125 -7.40625 C 2.234375 -7.851562 2.832031 -8.078125 3.5 -8.078125 Z M 3.5 -8.078125" transform="translate(176.818 105.942)"/></g></g></g><g fill="#FFF"><g><g><path d="M 0.078125 -6.359375 L 0.078125 -7.9375 L 5.65625 -7.9375 L 5.65625 -6.359375 L 3.765625 -6.359375 L 3.765625 0 L 1.96875 0 L 1.96875 -6.359375 Z M 0.078125 -6.359375" transform="translate(190.981 105.942)"/></g></g></g><g fill="#FFF"><g><g><path d="M 5.125 -7.9375 L 5.125 -6.359375 L 2.390625 -6.359375 L 2.390625 -4.78125 L 5 -4.78125 L 5 -3.1875 L 2.390625 -3.1875 L 2.390625 -1.59375 L 5.125 -1.59375 L 5.125 0 L 0.578125 0 L 0.578125 -7.9375 Z M 5.125 -7.9375" transform="translate(204.413 105.942)"/></g></g></g><g fill="#FFF"><g><g><path d="M 2.390625 -7.9375 L 2.390625 -1.59375 L 5.125 -1.59375 L 5.125 0 L 0.578125 0 L 0.578125 -7.9375 Z M 2.390625 -7.9375" transform="translate(217.691 105.942)"/></g></g></g><g fill="#FFF"><g><g><path d="M 5.125 -7.9375 L 5.125 -6.359375 L 2.390625 -6.359375 L 2.390625 -4.78125 L 5 -4.78125 L 5 -3.1875 L 2.390625 -3.1875 L 2.390625 -1.59375 L 5.125 -1.59375 L 5.125 0 L 0.578125 0 L 0.578125 -7.9375 Z M 5.125 -7.9375" transform="translate(230.825 105.942)"/></g></g></g><g fill="#FFF"><g><g><path d="M 0.578125 -7.9375 L 3.421875 -7.9375 C 4.179688 -7.9375 4.800781 -7.734375 5.28125 -7.328125 C 5.757812 -6.921875 6 -6.335938 6 -5.578125 C 6 -4.992188 5.851562 -4.503906 5.5625 -4.109375 C 5.269531 -3.710938 4.875 -3.4375 4.375 -3.28125 L 7.109375 0 L 4.8125 0 L 2.390625 -3.140625 L 2.390625 0 L 0.578125 0 Z M 2.390625 -4.421875 L 2.59375 -4.421875 C 2.757812 -4.421875 2.898438 -4.421875 3.015625 -4.421875 C 3.140625 -4.429688 3.273438 -4.453125 3.421875 -4.484375 C 3.566406 -4.523438 3.679688 -4.582031 3.765625 -4.65625 C 3.859375 -4.726562 3.9375 -4.832031 4 -4.96875 C 4.0625 -5.101562 4.09375 -5.265625 4.09375 -5.453125 C 4.09375 -5.648438 4.0625 -5.816406 4 -5.953125 C 3.9375 -6.085938 3.859375 -6.1875 3.765625 -6.25 C 3.679688 -6.320312 3.566406 -6.378906 3.421875 -6.421875 C 3.273438 -6.460938 3.140625 -6.484375 3.015625 -6.484375 C 2.898438 -6.492188 2.757812 -6.5 2.59375 -6.5 L 2.390625 -6.5 Z M 2.390625 -4.421875" transform="translate(244.103 105.942)"/></g></g></g><g fill="#FFF"><g><g><path d="M 2.390625 -7.9375 L 2.390625 0 L 0.578125 0 L 0.578125 -7.9375 Z M 2.390625 -7.9375" transform="translate(258.69 105.942)"/></g></g></g><g fill="#FFF"><g><g><path d="M 4.609375 -7.9375 L 7.8125 0 L 5.875 0 L 5.28125 -1.59375 L 2.265625 -1.59375 L 1.671875 0 L -0.265625 0 L 2.9375 -7.9375 Z M 4.671875 -3.171875 L 3.78125 -5.484375 L 3.765625 -5.484375 L 2.875 -3.171875 Z M 4.671875 -3.171875" transform="translate(269.35 105.942)"/></g></g></g></svg>