<svg xmlns="http://www.w3.org/2000/svg" width="375" viewBox="0 0 375 187.5" height="187.5" version="1.0"><defs><clipPath id="a"><path d="M 78.449219 78.429688 L 147.675781 78.429688 L 147.675781 118.554688 L 78.449219 118.554688 Z M 78.449219 78.429688"/></clipPath><clipPath id="b"><path d="M 78.433594 92 L 147.996094 92 L 147.996094 105 L 78.433594 105 Z M 78.433594 92"/></clipPath></defs><path fill="#F2D4BC" d="M 321.128906 37.046875 L 203.761719 11.175781 C 194.925781 9.226562 180.421875 9.226562 171.585938 11.175781 L 54.214844 37.046875 C 45.378906 39 38.128906 48.027344 38.128906 57.121094 L 38.128906 120.6875 C 38.128906 129.960938 45.378906 139.175781 54.214844 141.1875 L 171.585938 167.667969 C 180.421875 169.679688 194.925781 169.679688 203.761719 167.667969 L 321.128906 141.1875 C 329.964844 139.175781 337.21875 129.960938 337.21875 120.6875 L 337.21875 57.121094 C 337.21875 48.027344 329.964844 39 321.128906 37.046875"/><path fill="#111B1E" d="M 316.265625 41.398438 L 203.066406 16.429688 C 194.542969 14.542969 180.554688 14.542969 172.03125 16.429688 L 58.835938 41.398438 C 50.3125 43.285156 43.316406 52 43.316406 60.777344 L 43.316406 117.046875 C 43.316406 125.996094 50.3125 134.890625 58.835938 136.832031 L 172.03125 162.394531 C 180.554688 164.335938 194.542969 164.335938 203.066406 162.394531 L 316.265625 136.832031 C 324.785156 134.890625 331.78125 125.996094 331.78125 117.046875 L 331.78125 60.777344 C 331.78125 52 324.785156 43.285156 316.265625 41.398438"/><path fill="#D4A886" d="M 115.910156 64.695312 C 115.910156 61.335938 115.910156 57.976562 115.910156 54.621094 C 115.910156 52.550781 113.644531 52.226562 112.042969 52.527344 C 110.800781 52.757812 110.265625 53.714844 110.265625 54.902344 C 110.265625 56.984375 110.265625 59.066406 110.265625 61.148438 C 110.265625 62.328125 110.265625 63.511719 110.265625 64.695312 C 110.265625 65.3125 110.777344 65.828125 111.394531 65.828125 C 112.523438 65.828125 113.652344 65.828125 114.777344 65.828125 C 116.238281 65.828125 116.238281 63.558594 114.777344 63.558594 C 113.652344 63.558594 112.523438 63.558594 111.394531 63.558594 C 111.773438 63.9375 112.148438 64.316406 112.527344 64.695312 C 112.527344 61.335938 112.527344 57.976562 112.527344 54.621094 C 112.527344 54.527344 112.429688 54.75 112.328125 54.789062 C 112.460938 54.738281 112.558594 54.734375 112.699219 54.722656 C 113.019531 54.703125 113.378906 54.691406 113.691406 54.75 C 113.996094 54.804688 113.707031 54.746094 113.640625 54.570312 C 113.648438 54.582031 113.648438 54.613281 113.648438 54.632812 C 113.648438 54.707031 113.648438 54.777344 113.648438 54.851562 C 113.648438 55.675781 113.648438 56.5 113.648438 57.320312 C 113.648438 59.550781 113.648438 61.777344 113.648438 64.003906 C 113.648438 64.234375 113.648438 64.464844 113.648438 64.695312 C 113.648438 66.160156 115.910156 66.160156 115.910156 64.695312"/><path fill="#D4A886" d="M 112.257812 44.863281 C 111.378906 45.855469 110.636719 46.996094 110.183594 48.242188 C 109.863281 49.125 109.871094 50.058594 110.28125 50.902344 C 110.75 51.871094 112.21875 52.566406 113.25 52.429688 C 114.3125 52.289062 115.371094 51.894531 115.914062 50.90625 C 116.355469 50.101562 116.265625 49.125 115.980469 48.289062 C 115.550781 47.023438 114.738281 45.855469 113.859375 44.863281 C 112.882812 43.769531 111.289062 45.382812 112.257812 46.472656 C 112.738281 47.011719 113.101562 47.519531 113.546875 48.347656 C 113.703125 48.632812 113.757812 48.765625 113.839844 49.007812 C 113.96875 49.394531 113.96875 49.386719 113.957031 49.726562 C 113.964844 49.492188 113.9375 49.789062 113.925781 49.839844 C 113.953125 49.742188 113.953125 49.804688 113.886719 49.875 C 113.765625 50.007812 113.441406 50.101562 113.132812 50.167969 C 113.007812 50.191406 112.605469 50.054688 112.394531 49.933594 C 112.214844 49.828125 112.265625 49.839844 112.230469 49.730469 C 112.210938 49.664062 112.210938 49.433594 112.230469 49.324219 C 112.289062 49.03125 112.414062 48.703125 112.5 48.523438 C 112.757812 47.972656 113.097656 47.460938 113.453125 46.96875 C 113.476562 46.9375 113.683594 46.671875 113.507812 46.898438 C 113.566406 46.820312 113.628906 46.746094 113.691406 46.667969 C 113.746094 46.601562 113.800781 46.535156 113.859375 46.472656 C 114.824219 45.382812 113.230469 43.769531 112.257812 44.863281"/><path fill="#D4A886" d="M 127.03125 64.695312 C 127.03125 61.335938 127.03125 57.976562 127.03125 54.621094 C 127.03125 52.550781 124.765625 52.226562 123.164062 52.527344 C 121.921875 52.757812 121.386719 53.714844 121.386719 54.902344 C 121.386719 56.984375 121.386719 59.066406 121.386719 61.148438 C 121.386719 62.328125 121.386719 63.511719 121.386719 64.695312 C 121.386719 65.3125 121.902344 65.828125 122.515625 65.828125 C 123.644531 65.828125 124.773438 65.828125 125.898438 65.828125 C 127.359375 65.828125 127.359375 63.558594 125.898438 63.558594 C 124.773438 63.558594 123.644531 63.558594 122.515625 63.558594 C 122.894531 63.9375 123.273438 64.316406 123.648438 64.695312 C 123.648438 61.335938 123.648438 57.976562 123.648438 54.621094 C 123.648438 54.527344 123.554688 54.75 123.453125 54.789062 C 123.582031 54.738281 123.679688 54.734375 123.820312 54.722656 C 124.140625 54.703125 124.5 54.691406 124.816406 54.75 C 125.121094 54.804688 124.832031 54.746094 124.765625 54.570312 C 124.769531 54.582031 124.769531 54.613281 124.769531 54.632812 C 124.769531 54.707031 124.769531 54.777344 124.769531 54.851562 C 124.769531 55.675781 124.769531 56.5 124.769531 57.320312 C 124.769531 59.550781 124.769531 61.777344 124.769531 64.003906 C 124.769531 64.234375 124.769531 64.464844 124.769531 64.695312 C 124.769531 66.160156 127.03125 66.160156 127.03125 64.695312"/><path fill="#D4A886" d="M 123.378906 44.863281 C 122.503906 45.855469 121.757812 46.996094 121.304688 48.242188 C 120.988281 49.125 120.996094 50.058594 121.402344 50.902344 C 121.871094 51.871094 123.339844 52.566406 124.371094 52.429688 C 125.433594 52.289062 126.492188 51.894531 127.035156 50.90625 C 127.480469 50.101562 127.386719 49.125 127.101562 48.289062 C 126.671875 47.023438 125.859375 45.855469 124.980469 44.863281 C 124.007812 43.769531 122.410156 45.382812 123.378906 46.472656 C 123.859375 47.011719 124.222656 47.519531 124.671875 48.347656 C 124.824219 48.632812 124.878906 48.765625 124.960938 49.007812 C 125.09375 49.394531 125.089844 49.386719 125.082031 49.726562 C 125.085938 49.492188 125.0625 49.789062 125.046875 49.839844 C 125.074219 49.742188 125.074219 49.804688 125.011719 49.875 C 124.890625 50.007812 124.5625 50.101562 124.253906 50.167969 C 124.128906 50.191406 123.726562 50.054688 123.515625 49.933594 C 123.335938 49.828125 123.386719 49.839844 123.351562 49.730469 C 123.332031 49.664062 123.332031 49.433594 123.351562 49.324219 C 123.410156 49.03125 123.535156 48.703125 123.621094 48.523438 C 123.878906 47.972656 124.21875 47.460938 124.578125 46.96875 C 124.601562 46.9375 124.804688 46.671875 124.628906 46.898438 C 124.6875 46.820312 124.75 46.746094 124.8125 46.667969 C 124.867188 46.601562 124.921875 46.535156 124.980469 46.472656 C 125.945312 45.382812 124.351562 43.769531 123.378906 44.863281"/><path fill="#D4A886" d="M 104.46875 64.695312 C 104.46875 61.335938 104.46875 57.976562 104.46875 54.621094 C 104.46875 52.550781 102.203125 52.226562 100.601562 52.527344 C 99.359375 52.757812 98.824219 53.714844 98.824219 54.902344 C 98.824219 56.984375 98.824219 59.066406 98.824219 61.148438 C 98.824219 62.328125 98.824219 63.511719 98.824219 64.695312 C 98.824219 65.3125 99.339844 65.828125 99.957031 65.828125 C 101.082031 65.828125 102.210938 65.828125 103.335938 65.828125 C 104.796875 65.828125 104.796875 63.558594 103.335938 63.558594 C 102.210938 63.558594 101.082031 63.558594 99.957031 63.558594 C 100.332031 63.9375 100.710938 64.316406 101.085938 64.695312 C 101.085938 61.335938 101.085938 57.976562 101.085938 54.621094 C 101.085938 54.527344 100.992188 54.75 100.890625 54.789062 C 101.019531 54.738281 101.117188 54.734375 101.257812 54.722656 C 101.578125 54.703125 101.9375 54.691406 102.253906 54.75 C 102.558594 54.804688 102.269531 54.746094 102.203125 54.570312 C 102.207031 54.582031 102.207031 54.613281 102.207031 54.632812 C 102.207031 54.707031 102.207031 54.777344 102.207031 54.851562 C 102.207031 55.675781 102.207031 56.5 102.207031 57.320312 C 102.207031 59.550781 102.207031 61.777344 102.207031 64.003906 C 102.207031 64.234375 102.207031 64.464844 102.207031 64.695312 C 102.207031 66.160156 104.46875 66.160156 104.46875 64.695312"/><path fill="#D4A886" d="M 100.816406 44.863281 C 99.941406 45.855469 99.195312 46.996094 98.742188 48.242188 C 98.425781 49.125 98.433594 50.058594 98.839844 50.902344 C 99.308594 51.871094 100.777344 52.566406 101.8125 52.429688 C 102.871094 52.289062 103.929688 51.894531 104.472656 50.90625 C 104.917969 50.101562 104.824219 49.125 104.539062 48.289062 C 104.109375 47.023438 103.296875 45.855469 102.417969 44.863281 C 101.445312 43.769531 99.847656 45.382812 100.816406 46.472656 C 101.296875 47.011719 101.660156 47.519531 102.109375 48.347656 C 102.261719 48.632812 102.316406 48.765625 102.398438 49.007812 C 102.53125 49.394531 102.527344 49.386719 102.519531 49.726562 C 102.527344 49.492188 102.5 49.789062 102.484375 49.839844 C 102.511719 49.742188 102.511719 49.804688 102.449219 49.875 C 102.328125 50.007812 102 50.101562 101.691406 50.167969 C 101.566406 50.191406 101.164062 50.054688 100.953125 49.933594 C 100.773438 49.828125 100.824219 49.839844 100.789062 49.730469 C 100.769531 49.664062 100.769531 49.433594 100.792969 49.324219 C 100.847656 49.03125 100.976562 48.703125 101.058594 48.523438 C 101.316406 47.972656 101.65625 47.460938 102.015625 46.96875 C 102.039062 46.9375 102.242188 46.671875 102.066406 46.898438 C 102.125 46.820312 102.1875 46.746094 102.25 46.667969 C 102.304688 46.601562 102.359375 46.535156 102.417969 46.472656 C 103.382812 45.382812 101.789062 43.769531 100.816406 44.863281"/><g clip-path="url(#a)"><path fill="#D4A886" d="M 86.742188 78.652344 C 83.5625 80.050781 79.9375 82.109375 78.753906 85.621094 C 78.339844 86.851562 78.496094 88.328125 78.496094 89.609375 C 78.496094 94.125 78.496094 98.640625 78.496094 103.15625 C 78.496094 104.3125 78.402344 105.523438 78.652344 106.660156 C 79.125 108.816406 80.863281 110.46875 82.574219 111.710938 C 84.976562 113.457031 87.847656 114.574219 90.65625 115.472656 C 94.359375 116.660156 98.203125 117.363281 102.054688 117.851562 C 110.828125 118.96875 119.871094 118.753906 128.574219 117.171875 C 132.070312 116.539062 135.542969 115.636719 138.828125 114.265625 C 141.269531 113.246094 143.71875 111.96875 145.570312 110.03125 C 146.8125 108.738281 147.675781 107.09375 147.675781 105.269531 C 147.675781 103.855469 147.675781 102.441406 147.675781 101.027344 C 147.675781 96.703125 147.675781 92.382812 147.675781 88.058594 C 147.675781 86.664062 147.480469 85.390625 146.753906 84.15625 C 145.1875 81.496094 142.152344 79.847656 139.429688 78.652344 C 138.867188 78.402344 138.21875 78.480469 137.882812 79.058594 C 137.597656 79.546875 137.722656 80.367188 138.289062 80.613281 C 140.109375 81.414062 141.917969 82.351562 143.410156 83.683594 C 144.363281 84.535156 145.285156 85.671875 145.402344 86.996094 C 145.503906 88.152344 145.414062 89.347656 145.414062 90.503906 C 145.414062 94.976562 145.414062 99.445312 145.414062 103.914062 C 145.414062 104.375 145.414062 104.832031 145.414062 105.292969 C 145.414062 105.847656 145.277344 106.425781 145.066406 106.867188 C 144.179688 108.738281 142.214844 110.042969 140.332031 111.058594 C 137.476562 112.605469 134.308594 113.5625 131.164062 114.316406 C 127.136719 115.277344 123.019531 115.804688 118.890625 116.070312 C 110.359375 116.621094 101.574219 116.101562 93.289062 113.878906 C 90.3125 113.082031 87.359375 112.03125 84.722656 110.417969 C 83.753906 109.824219 82.890625 109.167969 82.117188 108.332031 C 81.554688 107.730469 81.089844 106.96875 80.882812 106.253906 C 80.75 105.792969 80.757812 105.601562 80.757812 105.039062 C 80.757812 104.410156 80.757812 103.78125 80.757812 103.15625 C 80.757812 100.90625 80.757812 98.65625 80.757812 96.40625 C 80.757812 94.140625 80.757812 91.875 80.757812 89.609375 C 80.757812 88.390625 80.613281 87.082031 81.042969 85.921875 C 81.464844 84.789062 82.492188 83.875 83.402344 83.144531 C 84.730469 82.070312 86.332031 81.296875 87.882812 80.613281 C 88.449219 80.367188 88.574219 79.546875 88.289062 79.058594 C 87.953125 78.480469 87.308594 78.402344 86.742188 78.652344"/></g><path fill="#D4A886" d="M 110.507812 55.632812 C 109.207031 55.703125 107.914062 55.839844 106.617188 55.984375 C 106.003906 56.054688 105.484375 56.449219 105.484375 57.121094 C 105.484375 57.6875 106.003906 58.324219 106.617188 58.257812 C 107.914062 58.113281 109.207031 57.976562 110.507812 57.90625 C 111.960938 57.828125 111.96875 55.554688 110.507812 55.632812"/><path fill="#D4A886" d="M 119.074219 55.933594 C 117.644531 55.785156 116.214844 55.648438 114.777344 55.597656 C 113.316406 55.546875 113.324219 57.820312 114.777344 57.871094 C 116.214844 57.917969 117.644531 58.058594 119.074219 58.207031 C 119.691406 58.269531 120.207031 57.640625 120.207031 57.070312 C 120.207031 56.402344 119.6875 55.996094 119.074219 55.933594"/><path fill="#D4A886" d="M 96.324219 57.757812 C 92.984375 58.777344 89.117188 60.234375 87.082031 63.273438 C 86.144531 64.675781 86.257812 66.25 86.257812 67.84375 C 86.257812 71.804688 86.257812 75.769531 86.257812 79.734375 C 86.257812 81.714844 87.488281 83.34375 88.988281 84.515625 C 91.425781 86.421875 94.445312 87.503906 97.398438 88.308594 C 105.71875 90.574219 114.777344 90.691406 123.265625 89.441406 C 126.859375 88.90625 130.429688 88.035156 133.757812 86.550781 C 135.90625 85.589844 138.28125 84.171875 139.378906 81.980469 C 140.023438 80.6875 139.914062 79.3125 139.914062 77.917969 C 139.914062 75.59375 139.914062 73.269531 139.914062 70.945312 C 139.914062 69.679688 139.914062 68.417969 139.914062 67.152344 C 139.914062 66.421875 139.9375 65.707031 139.808594 64.984375 C 139.496094 63.226562 138.046875 61.867188 136.683594 60.863281 C 134.65625 59.371094 132.175781 58.464844 129.789062 57.742188 C 128.390625 57.316406 127.796875 59.511719 129.1875 59.933594 C 131.113281 60.515625 132.988281 61.230469 134.714844 62.273438 C 135.75 62.902344 136.964844 63.816406 137.433594 64.9375 C 137.882812 66.019531 137.652344 67.648438 137.652344 68.894531 C 137.652344 71.289062 137.652344 73.6875 137.652344 76.082031 C 137.652344 77.417969 137.738281 78.78125 137.636719 80.113281 C 137.65625 79.890625 137.570312 80.414062 137.542969 80.515625 C 137.511719 80.613281 137.476562 80.710938 137.4375 80.808594 C 137.523438 80.589844 137.382812 80.910156 137.375 80.929688 C 137.125 81.433594 136.949219 81.636719 136.585938 82.019531 C 135.773438 82.882812 134.757812 83.5 133.710938 84.054688 C 130.6875 85.65625 127.230469 86.46875 123.882812 87.050781 C 119.496094 87.820312 115.007812 88.019531 110.5625 87.871094 C 106.402344 87.734375 102.242188 87.226562 98.210938 86.171875 C 95.46875 85.457031 92.472656 84.472656 90.261719 82.648438 C 89.867188 82.320312 89.503906 81.953125 89.179688 81.554688 C 89.046875 81.390625 88.71875 80.773438 88.664062 80.613281 C 88.476562 80.070312 88.523438 79.960938 88.523438 79.351562 C 88.523438 75.230469 88.523438 71.101562 88.523438 66.980469 C 88.523438 65.863281 88.488281 65.074219 89.226562 64.148438 C 91.042969 61.863281 94.25 60.765625 96.925781 59.949219 C 98.316406 59.527344 97.722656 57.332031 96.324219 57.757812"/><path fill="#D4A886" d="M 106.34375 75.5625 C 114.054688 76.296875 122.132812 75.933594 129.605469 73.769531 C 132.171875 73.023438 134.808594 72.019531 136.957031 70.386719 C 138.527344 69.195312 139.882812 67.574219 139.914062 65.503906 C 139.9375 64.039062 137.671875 64.039062 137.652344 65.503906 C 137.644531 66.058594 137.46875 66.554688 137.027344 67.199219 C 136.671875 67.71875 135.871094 68.410156 135.21875 68.855469 C 133.109375 70.300781 130.621094 71.144531 128.175781 71.808594 C 121.132812 73.726562 113.574219 73.976562 106.34375 73.289062 C 104.890625 73.148438 104.90625 75.421875 106.34375 75.5625"/><path fill="#D4A886" d="M 99.660156 74.546875 C 100.777344 74.78125 101.902344 74.984375 103.03125 75.152344 C 103.640625 75.242188 104.242188 75.007812 104.421875 74.359375 C 104.570312 73.816406 104.242188 73.050781 103.632812 72.960938 C 102.503906 72.792969 101.378906 72.59375 100.261719 72.355469 C 98.839844 72.054688 98.234375 74.246094 99.660156 74.546875"/><path fill="#D4A886" d="M 86.257812 65.503906 C 86.351562 69.847656 91.554688 72.058594 94.976562 73.261719 C 96.359375 73.746094 96.945312 71.550781 95.578125 71.070312 C 93.765625 70.433594 91.90625 69.652344 90.386719 68.445312 C 89.457031 67.707031 88.546875 66.6875 88.523438 65.503906 C 88.492188 64.039062 86.226562 64.039062 86.257812 65.503906"/><g clip-path="url(#b)"><path fill="#D4A886" d="M 78.449219 93.757812 C 78.4375 94.902344 78.78125 96.09375 79.3125 97.09375 C 80.457031 99.253906 82.800781 100.136719 85.136719 100.050781 C 87.074219 99.976562 88.910156 99.242188 90.832031 99.019531 C 92.242188 98.855469 93.675781 98.878906 95.042969 99.285156 C 96.488281 99.710938 97.242188 100.515625 98.414062 101.566406 C 100.125 103.109375 101.925781 104.4375 104.261719 104.800781 C 106.046875 105.078125 107.832031 104.796875 109.503906 104.144531 C 110.546875 103.738281 111.496094 103.160156 112.496094 102.664062 C 113.480469 102.175781 114.535156 101.839844 115.609375 101.601562 C 117.125 101.265625 118.734375 101.261719 120.261719 101.554688 C 120.820312 101.660156 121.367188 101.816406 121.90625 101.996094 C 122.121094 102.066406 122.332031 102.148438 122.539062 102.230469 C 122.578125 102.246094 122.882812 102.375 122.617188 102.261719 C 122.710938 102.300781 122.804688 102.34375 122.902344 102.386719 C 124.375 103.054688 125.777344 103.78125 127.382812 104.09375 C 129.347656 104.476562 131.289062 104.269531 133.105469 103.429688 C 134.207031 102.917969 135.171875 102.09375 135.980469 101.203125 C 136.90625 100.179688 137.621094 99.03125 138.742188 98.199219 C 140.109375 97.1875 141.90625 96.726562 143.449219 96.964844 C 144.039062 97.058594 144.617188 97.226562 145.171875 97.449219 C 144.871094 97.328125 145.332031 97.523438 145.417969 97.570312 C 145.480469 97.601562 145.542969 97.632812 145.601562 97.671875 C 146.859375 98.417969 148 96.453125 146.746094 95.707031 C 145.34375 94.875 143.542969 94.542969 141.941406 94.65625 C 140.371094 94.765625 138.882812 95.335938 137.601562 96.238281 C 135.914062 97.425781 134.941406 99.21875 133.40625 100.550781 C 131.34375 102.347656 128.570312 102.273438 126.144531 101.386719 C 125.71875 101.234375 125.609375 101.183594 125.144531 100.957031 C 124.910156 100.84375 124.679688 100.71875 124.441406 100.605469 C 123.769531 100.292969 123.089844 100 122.390625 99.765625 C 119.214844 98.703125 115.722656 98.929688 112.625 100.144531 C 110.609375 100.933594 108.886719 102.195312 106.714844 102.578125 C 105.425781 102.800781 104.023438 102.574219 102.84375 102.019531 C 101.386719 101.335938 100.355469 100.296875 99.160156 99.175781 C 97.535156 97.65625 95.59375 96.886719 93.386719 96.691406 C 90.992188 96.484375 88.714844 97.140625 86.398438 97.621094 C 84.894531 97.929688 83.324219 97.875 82.128906 97.019531 C 81.546875 96.601562 81.109375 95.761719 80.894531 94.980469 C 80.839844 94.789062 80.800781 94.59375 80.761719 94.398438 C 80.695312 94.011719 80.773438 94.582031 80.734375 94.175781 C 80.71875 94.035156 80.710938 93.894531 80.710938 93.757812 C 80.726562 92.292969 78.460938 92.292969 78.449219 93.757812"/></g><g fill="#D4A886"><g><g><path d="M 8.578125 -19.78125 C 9.628906 -19.78125 10.65625 -19.625 11.65625 -19.3125 C 12.65625 -19.007812 13.398438 -18.707031 13.890625 -18.40625 L 14.59375 -17.9375 L 12.8125 -14.40625 C 12.664062 -14.5 12.46875 -14.617188 12.21875 -14.765625 C 11.96875 -14.921875 11.492188 -15.125 10.796875 -15.375 C 10.109375 -15.625 9.46875 -15.75 8.875 -15.75 C 8.132812 -15.75 7.5625 -15.59375 7.15625 -15.28125 C 6.757812 -14.96875 6.5625 -14.546875 6.5625 -14.015625 C 6.5625 -13.742188 6.65625 -13.492188 6.84375 -13.265625 C 7.039062 -13.035156 7.363281 -12.789062 7.8125 -12.53125 C 8.269531 -12.28125 8.671875 -12.070312 9.015625 -11.90625 C 9.359375 -11.75 9.894531 -11.515625 10.625 -11.203125 C 11.875 -10.671875 12.941406 -9.945312 13.828125 -9.03125 C 14.722656 -8.113281 15.171875 -7.070312 15.171875 -5.90625 C 15.171875 -4.789062 14.96875 -3.816406 14.5625 -2.984375 C 14.164062 -2.160156 13.617188 -1.507812 12.921875 -1.03125 C 12.222656 -0.5625 11.445312 -0.210938 10.59375 0.015625 C 9.75 0.242188 8.832031 0.359375 7.84375 0.359375 C 6.988281 0.359375 6.15625 0.269531 5.34375 0.09375 C 4.53125 -0.0820312 3.847656 -0.296875 3.296875 -0.546875 C 2.742188 -0.804688 2.25 -1.0625 1.8125 -1.3125 C 1.375 -1.570312 1.050781 -1.785156 0.84375 -1.953125 L 0.546875 -2.21875 L 2.75 -5.9375 C 2.9375 -5.78125 3.195312 -5.578125 3.53125 -5.328125 C 3.863281 -5.085938 4.445312 -4.765625 5.28125 -4.359375 C 6.125 -3.953125 6.867188 -3.75 7.515625 -3.75 C 9.378906 -3.75 10.3125 -4.382812 10.3125 -5.65625 C 10.3125 -5.914062 10.242188 -6.160156 10.109375 -6.390625 C 9.972656 -6.617188 9.738281 -6.847656 9.40625 -7.078125 C 9.070312 -7.304688 8.773438 -7.484375 8.515625 -7.609375 C 8.253906 -7.742188 7.828125 -7.945312 7.234375 -8.21875 C 6.648438 -8.5 6.21875 -8.710938 5.9375 -8.859375 C 4.757812 -9.429688 3.847656 -10.15625 3.203125 -11.03125 C 2.554688 -11.90625 2.234375 -12.84375 2.234375 -13.84375 C 2.234375 -15.582031 2.875 -17.003906 4.15625 -18.109375 C 5.445312 -19.222656 6.921875 -19.78125 8.578125 -19.78125 Z M 8.578125 -19.78125" transform="translate(173.77 82.963)"/></g></g></g><g fill="#D4A886"><g><g><path d="M 1.40625 -19.421875 L 8.5 -19.421875 C 10.476562 -19.421875 12.078125 -18.910156 13.296875 -17.890625 C 14.523438 -16.867188 15.140625 -15.382812 15.140625 -13.4375 C 15.140625 -11.5 14.519531 -9.972656 13.28125 -8.859375 C 12.039062 -7.753906 10.445312 -7.203125 8.5 -7.203125 L 5.84375 -7.203125 L 5.84375 0 L 1.40625 0 Z M 5.84375 -10.734375 L 7.09375 -10.734375 C 8.082031 -10.734375 8.894531 -10.929688 9.53125 -11.328125 C 10.164062 -11.734375 10.484375 -12.390625 10.484375 -13.296875 C 10.484375 -14.222656 10.164062 -14.882812 9.53125 -15.28125 C 8.894531 -15.6875 8.082031 -15.890625 7.09375 -15.890625 L 5.84375 -15.890625 Z M 5.84375 -10.734375" transform="translate(189.588 82.963)"/></g></g></g><g fill="#D4A886"><g><g><path d="M 11.28125 -19.421875 L 19.125 0 L 14.359375 0 L 12.921875 -3.890625 L 5.53125 -3.890625 L 4.09375 0 L -0.65625 0 L 7.1875 -19.421875 Z M 11.421875 -7.765625 L 9.25 -13.421875 L 9.203125 -13.421875 L 7.046875 -7.765625 Z M 11.421875 -7.765625" transform="translate(205.265 82.963)"/></g></g></g><g fill="#D4A886"><g><g><path d="M 11.75 -4 C 12.425781 -4 13.082031 -4.097656 13.71875 -4.296875 C 14.351562 -4.503906 14.816406 -4.703125 15.109375 -4.890625 L 15.5625 -5.203125 L 17.453125 -1.4375 C 17.390625 -1.382812 17.300781 -1.316406 17.1875 -1.234375 C 17.082031 -1.160156 16.828125 -1.019531 16.421875 -0.8125 C 16.023438 -0.601562 15.597656 -0.421875 15.140625 -0.265625 C 14.679688 -0.109375 14.082031 0.03125 13.34375 0.15625 C 12.613281 0.289062 11.851562 0.359375 11.0625 0.359375 C 9.257812 0.359375 7.550781 -0.0820312 5.9375 -0.96875 C 4.320312 -1.863281 3.019531 -3.085938 2.03125 -4.640625 C 1.039062 -6.191406 0.546875 -7.867188 0.546875 -9.671875 C 0.546875 -11.035156 0.832031 -12.347656 1.40625 -13.609375 C 1.988281 -14.867188 2.765625 -15.941406 3.734375 -16.828125 C 4.703125 -17.722656 5.828125 -18.4375 7.109375 -18.96875 C 8.398438 -19.507812 9.71875 -19.78125 11.0625 -19.78125 C 12.320312 -19.78125 13.476562 -19.628906 14.53125 -19.328125 C 15.59375 -19.035156 16.34375 -18.738281 16.78125 -18.4375 L 17.453125 -17.984375 L 15.5625 -14.21875 C 15.457031 -14.3125 15.289062 -14.425781 15.0625 -14.5625 C 14.84375 -14.695312 14.40625 -14.875 13.75 -15.09375 C 13.09375 -15.3125 12.425781 -15.421875 11.75 -15.421875 C 10.6875 -15.421875 9.726562 -15.25 8.875 -14.90625 C 8.03125 -14.5625 7.359375 -14.101562 6.859375 -13.53125 C 6.367188 -12.96875 5.992188 -12.359375 5.734375 -11.703125 C 5.472656 -11.054688 5.34375 -10.394531 5.34375 -9.71875 C 5.34375 -8.25 5.894531 -6.925781 7 -5.75 C 8.113281 -4.582031 9.695312 -4 11.75 -4 Z M 11.75 -4" transform="translate(223.72 82.963)"/></g></g></g><g fill="#D4A886"><g><g><path d="M 12.53125 -19.421875 L 12.53125 -15.546875 L 5.84375 -15.546875 L 5.84375 -11.671875 L 12.25 -11.671875 L 12.25 -7.796875 L 5.84375 -7.796875 L 5.84375 -3.890625 L 12.53125 -3.890625 L 12.53125 0 L 1.40625 0 L 1.40625 -19.421875 Z M 12.53125 -19.421875" transform="translate(241.444 82.963)"/></g></g></g><g fill="#D4A886"><g><g><path d="M 4.828125 -13.828125 L 1.34375 -15.515625 C 1.375 -15.628906 1.421875 -15.78125 1.484375 -15.96875 C 1.546875 -16.164062 1.734375 -16.507812 2.046875 -17 C 2.359375 -17.488281 2.726562 -17.921875 3.15625 -18.296875 C 3.582031 -18.671875 4.203125 -19.007812 5.015625 -19.3125 C 5.828125 -19.625 6.742188 -19.78125 7.765625 -19.78125 C 9.617188 -19.78125 11.144531 -19.25 12.34375 -18.1875 C 13.550781 -17.125 14.15625 -15.769531 14.15625 -14.125 C 14.15625 -12.59375 13.582031 -11.378906 12.4375 -10.484375 C 14.082031 -9.472656 14.90625 -7.988281 14.90625 -6.03125 C 14.90625 -4.175781 14.222656 -2.644531 12.859375 -1.4375 C 11.503906 -0.238281 9.785156 0.359375 7.703125 0.359375 C 6.585938 0.359375 5.570312 0.191406 4.65625 -0.140625 C 3.75 -0.472656 3.039062 -0.867188 2.53125 -1.328125 C 2.019531 -1.796875 1.59375 -2.265625 1.25 -2.734375 C 0.914062 -3.203125 0.6875 -3.601562 0.5625 -3.9375 L 0.40625 -4.421875 L 4.5 -6.421875 C 4.5 -6.347656 4.507812 -6.242188 4.53125 -6.109375 C 4.550781 -5.972656 4.628906 -5.734375 4.765625 -5.390625 C 4.910156 -5.046875 5.085938 -4.742188 5.296875 -4.484375 C 5.503906 -4.222656 5.816406 -3.988281 6.234375 -3.78125 C 6.648438 -3.570312 7.128906 -3.46875 7.671875 -3.46875 C 8.503906 -3.46875 9.179688 -3.691406 9.703125 -4.140625 C 10.222656 -4.597656 10.484375 -5.226562 10.484375 -6.03125 C 10.484375 -6.863281 10.210938 -7.546875 9.671875 -8.078125 C 9.128906 -8.609375 8.460938 -8.875 7.671875 -8.875 L 6.828125 -8.734375 L 6.828125 -11.625 L 7.796875 -11.625 C 8.410156 -11.625 8.953125 -11.859375 9.421875 -12.328125 C 9.890625 -12.804688 10.125 -13.390625 10.125 -14.078125 C 10.125 -14.691406 9.882812 -15.203125 9.40625 -15.609375 C 8.925781 -16.015625 8.363281 -16.21875 7.71875 -16.21875 C 7.269531 -16.21875 6.859375 -16.132812 6.484375 -15.96875 C 6.117188 -15.8125 5.835938 -15.613281 5.640625 -15.375 C 5.441406 -15.132812 5.273438 -14.894531 5.140625 -14.65625 C 5.003906 -14.425781 4.921875 -14.234375 4.890625 -14.078125 Z M 4.828125 -13.828125" transform="translate(261.518 82.963)"/></g></g></g><g fill="#D4A886"><g><g><path d="M 13.65625 -19.421875 L 7.9375 -12.765625 C 8.269531 -12.953125 8.734375 -13.046875 9.328125 -13.046875 C 10.015625 -13.046875 10.710938 -12.898438 11.421875 -12.609375 C 12.128906 -12.316406 12.789062 -11.898438 13.40625 -11.359375 C 14.03125 -10.816406 14.535156 -10.097656 14.921875 -9.203125 C 15.316406 -8.304688 15.515625 -7.316406 15.515625 -6.234375 C 15.515625 -5.140625 15.304688 -4.15625 14.890625 -3.28125 C 14.472656 -2.414062 13.914062 -1.726562 13.21875 -1.21875 C 12.519531 -0.707031 11.753906 -0.316406 10.921875 -0.046875 C 10.085938 0.222656 9.21875 0.359375 8.3125 0.359375 C 6.125 0.359375 4.285156 -0.273438 2.796875 -1.546875 C 1.304688 -2.828125 0.5625 -4.390625 0.5625 -6.234375 C 0.5625 -7.804688 0.78125 -9.097656 1.21875 -10.109375 C 1.664062 -11.117188 2.46875 -12.410156 3.625 -13.984375 L 8.1875 -19.421875 Z M 5.15625 -6.234375 C 5.15625 -5.390625 5.429688 -4.6875 5.984375 -4.125 C 6.535156 -3.570312 7.238281 -3.296875 8.09375 -3.296875 C 8.957031 -3.296875 9.671875 -3.570312 10.234375 -4.125 C 10.804688 -4.6875 11.09375 -5.390625 11.09375 -6.234375 C 11.09375 -7.097656 10.804688 -7.816406 10.234375 -8.390625 C 9.660156 -8.960938 8.945312 -9.25 8.09375 -9.25 C 7.28125 -9.25 6.585938 -8.960938 6.015625 -8.390625 C 5.441406 -7.816406 5.15625 -7.097656 5.15625 -6.234375 Z M 5.15625 -6.234375" transform="translate(277.171 82.963)"/></g></g></g><g fill="#FFF"><g><g><path d="M 0.578125 -7.9375 L 3.46875 -7.9375 C 4.28125 -7.9375 4.9375 -7.726562 5.4375 -7.3125 C 5.9375 -6.894531 6.1875 -6.285156 6.1875 -5.484375 C 6.1875 -4.691406 5.929688 -4.066406 5.421875 -3.609375 C 4.921875 -3.160156 4.269531 -2.9375 3.46875 -2.9375 L 2.390625 -2.9375 L 2.390625 0 L 0.578125 0 Z M 2.390625 -4.390625 L 2.890625 -4.390625 C 3.296875 -4.390625 3.628906 -4.46875 3.890625 -4.625 C 4.148438 -4.789062 4.28125 -5.0625 4.28125 -5.4375 C 4.28125 -5.8125 4.148438 -6.082031 3.890625 -6.25 C 3.628906 -6.414062 3.296875 -6.5 2.890625 -6.5 L 2.390625 -6.5 Z M 2.390625 -4.390625" transform="translate(168.876 99.59)"/></g></g></g><g fill="#FFF"><g><g><path d="M 4.609375 -7.9375 L 7.8125 0 L 5.875 0 L 5.28125 -1.59375 L 2.265625 -1.59375 L 1.671875 0 L -0.265625 0 L 2.9375 -7.9375 Z M 4.671875 -3.171875 L 3.78125 -5.484375 L 3.765625 -5.484375 L 2.875 -3.171875 Z M 4.671875 -3.171875" transform="translate(182.982 99.59)"/></g></g></g><g fill="#FFF"><g><g><path d="M 3.5 -8.078125 C 3.925781 -8.078125 4.34375 -8.015625 4.75 -7.890625 C 5.164062 -7.765625 5.472656 -7.644531 5.671875 -7.53125 L 5.96875 -7.328125 L 5.234375 -5.890625 C 5.179688 -5.929688 5.101562 -5.976562 5 -6.03125 C 4.894531 -6.09375 4.703125 -6.175781 4.421875 -6.28125 C 4.140625 -6.382812 3.875 -6.4375 3.625 -6.4375 C 3.320312 -6.4375 3.085938 -6.367188 2.921875 -6.234375 C 2.765625 -6.109375 2.6875 -5.941406 2.6875 -5.734375 C 2.6875 -5.617188 2.722656 -5.515625 2.796875 -5.421875 C 2.878906 -5.328125 3.007812 -5.226562 3.1875 -5.125 C 3.375 -5.019531 3.535156 -4.9375 3.671875 -4.875 C 3.816406 -4.8125 4.039062 -4.710938 4.34375 -4.578125 C 4.851562 -4.359375 5.289062 -4.0625 5.65625 -3.6875 C 6.019531 -3.3125 6.203125 -2.890625 6.203125 -2.421875 C 6.203125 -1.960938 6.117188 -1.5625 5.953125 -1.21875 C 5.785156 -0.882812 5.554688 -0.617188 5.265625 -0.421875 C 4.984375 -0.234375 4.671875 -0.09375 4.328125 0 C 3.984375 0.09375 3.609375 0.140625 3.203125 0.140625 C 2.859375 0.140625 2.519531 0.101562 2.1875 0.03125 C 1.851562 -0.03125 1.570312 -0.113281 1.34375 -0.21875 C 1.125 -0.332031 0.921875 -0.4375 0.734375 -0.53125 C 0.554688 -0.632812 0.425781 -0.722656 0.34375 -0.796875 L 0.21875 -0.90625 L 1.125 -2.421875 C 1.195312 -2.359375 1.300781 -2.273438 1.4375 -2.171875 C 1.570312 -2.078125 1.8125 -1.945312 2.15625 -1.78125 C 2.5 -1.613281 2.804688 -1.53125 3.078125 -1.53125 C 3.835938 -1.53125 4.21875 -1.789062 4.21875 -2.3125 C 4.21875 -2.414062 4.1875 -2.515625 4.125 -2.609375 C 4.070312 -2.703125 3.976562 -2.796875 3.84375 -2.890625 C 3.707031 -2.984375 3.585938 -3.054688 3.484375 -3.109375 C 3.378906 -3.171875 3.203125 -3.253906 2.953125 -3.359375 C 2.710938 -3.472656 2.535156 -3.5625 2.421875 -3.625 C 1.941406 -3.851562 1.570312 -4.144531 1.3125 -4.5 C 1.050781 -4.863281 0.921875 -5.25 0.921875 -5.65625 C 0.921875 -6.375 1.179688 -6.957031 1.703125 -7.40625 C 2.234375 -7.851562 2.832031 -8.078125 3.5 -8.078125 Z M 3.5 -8.078125" transform="translate(198.222 99.59)"/></g></g></g><g fill="#FFF"><g><g><path d="M 0.078125 -6.359375 L 0.078125 -7.9375 L 5.65625 -7.9375 L 5.65625 -6.359375 L 3.765625 -6.359375 L 3.765625 0 L 1.96875 0 L 1.96875 -6.359375 Z M 0.078125 -6.359375" transform="translate(212.385 99.59)"/></g></g></g><g fill="#FFF"><g><g><path d="M 5.125 -7.9375 L 5.125 -6.359375 L 2.390625 -6.359375 L 2.390625 -4.78125 L 5 -4.78125 L 5 -3.1875 L 2.390625 -3.1875 L 2.390625 -1.59375 L 5.125 -1.59375 L 5.125 0 L 0.578125 0 L 0.578125 -7.9375 Z M 5.125 -7.9375" transform="translate(225.817 99.59)"/></g></g></g><g fill="#FFF"><g><g><path d="M 2.390625 -7.9375 L 2.390625 -1.59375 L 5.125 -1.59375 L 5.125 0 L 0.578125 0 L 0.578125 -7.9375 Z M 2.390625 -7.9375" transform="translate(239.095 99.59)"/></g></g></g><g fill="#FFF"><g><g><path d="M 5.125 -7.9375 L 5.125 -6.359375 L 2.390625 -6.359375 L 2.390625 -4.78125 L 5 -4.78125 L 5 -3.1875 L 2.390625 -3.1875 L 2.390625 -1.59375 L 5.125 -1.59375 L 5.125 0 L 0.578125 0 L 0.578125 -7.9375 Z M 5.125 -7.9375" transform="translate(252.229 99.59)"/></g></g></g><g fill="#FFF"><g><g><path d="M 0.578125 -7.9375 L 3.421875 -7.9375 C 4.179688 -7.9375 4.800781 -7.734375 5.28125 -7.328125 C 5.757812 -6.921875 6 -6.335938 6 -5.578125 C 6 -4.992188 5.851562 -4.503906 5.5625 -4.109375 C 5.269531 -3.710938 4.875 -3.4375 4.375 -3.28125 L 7.109375 0 L 4.8125 0 L 2.390625 -3.140625 L 2.390625 0 L 0.578125 0 Z M 2.390625 -4.421875 L 2.59375 -4.421875 C 2.757812 -4.421875 2.898438 -4.421875 3.015625 -4.421875 C 3.140625 -4.429688 3.273438 -4.453125 3.421875 -4.484375 C 3.566406 -4.523438 3.679688 -4.582031 3.765625 -4.65625 C 3.859375 -4.726562 3.9375 -4.832031 4 -4.96875 C 4.0625 -5.101562 4.09375 -5.265625 4.09375 -5.453125 C 4.09375 -5.648438 4.0625 -5.816406 4 -5.953125 C 3.9375 -6.085938 3.859375 -6.1875 3.765625 -6.25 C 3.679688 -6.320312 3.566406 -6.378906 3.421875 -6.421875 C 3.273438 -6.460938 3.140625 -6.484375 3.015625 -6.484375 C 2.898438 -6.492188 2.757812 -6.5 2.59375 -6.5 L 2.390625 -6.5 Z M 2.390625 -4.421875" transform="translate(265.507 99.59)"/></g></g></g><g fill="#FFF"><g><g><path d="M 2.390625 -7.9375 L 2.390625 0 L 0.578125 0 L 0.578125 -7.9375 Z M 2.390625 -7.9375" transform="translate(280.093 99.59)"/></g></g></g><g fill="#FFF"><g><g><path d="M 4.609375 -7.9375 L 7.8125 0 L 5.875 0 L 5.28125 -1.59375 L 2.265625 -1.59375 L 1.671875 0 L -0.265625 0 L 2.9375 -7.9375 Z M 4.671875 -3.171875 L 3.78125 -5.484375 L 3.765625 -5.484375 L 2.875 -3.171875 Z M 4.671875 -3.171875" transform="translate(290.754 99.59)"/></g></g></g></svg>